<svg version="1.1" xmlns="http://www.w3.org/2000/svg" xmlns:xlink="http://www.w3.org/1999/xlink" width="172" height="152" viewBox="0,0,256,226.22501"><g fill="#3a00f4" fill-rule="evenodd" stroke="none" stroke-width="1" stroke-linecap="butt" stroke-linejoin="miter" stroke-miterlimit="10" stroke-dasharray="" stroke-dashoffset="0" font-family="none" font-weight="none" font-size="none" text-anchor="none" style="mix-blend-mode: normal"><g transform="translate(-0.50381,-1.40094) scale(1.48837,1.48837)"><path d="M70,3.501c-26.427,5.341 -49.071,23.87 -59.874,48.994c-1.893,4.403 -4.496,8.996 -5.784,10.207c-4.073,3.831 -1.981,10.298 3.332,10.298c4.061,0 7.112,-6.814 4.307,-9.619c-1.309,-1.309 0.882,-7.638 5.666,-16.372c18.966,-34.621 61.128,-49.778 97.716,-35.128c15.652,6.268 34.637,21.6 34.637,27.973c0,5.308 5.957,8.061 9.345,4.317c3.436,-3.796 1.487,-9.054 -3.512,-9.475c-1.418,-0.119 -5.273,-3.16 -9.833,-7.758c-19.984,-20.15 -48.599,-28.974 -76,-23.437M74.706,30.472c-37.974,8.306 -55.777,52.691 -34.459,85.912c5.23,8.151 6.281,3.102 1.378,-6.617c-23.878,-47.333 26.711,-95.36 71.875,-68.236c9.79,5.88 18.263,15.49 17.044,19.331c-1.534,4.832 6.362,9.109 9.801,5.309c3.085,-3.408 -0.083,-10.171 -4.764,-10.171c-0.632,0 -1.911,-1.288 -2.84,-2.862c-9.998,-16.924 -36.666,-27.339 -58.035,-22.666M84,62c-1.505,1.505 -3.333,2 -7.391,2c-5.391,0 -5.391,0 -9.446,9.25c-2.23,5.088 -10.125,23.133 -17.544,40.102c-7.419,16.969 -13.748,31.111 -14.065,31.427c-3.48,3.481 -26.266,-33.064 -23.439,-37.592c2.821,-4.516 -1.656,-9.42 -7.041,-7.711c-3.909,1.241 -3.927,8.392 -0.024,10.133c1.165,0.52 3.375,4.037 5.275,8.393c5.591,12.821 21.995,33.998 26.336,33.998c0.601,0 9.341,-18.9 19.422,-42c20.005,-45.839 20.857,-47.06 27.917,-40c3.518,3.518 10,1.039 10,-3.826c0,-4.804 -6.611,-7.563 -10,-4.174M106.58,74.912c-2.449,2.706 -1.711,7.268 1.42,8.783c2.07,1.001 4.824,6.897 16,34.246c7.425,18.171 13.832,33.042 14.238,33.048c5.217,0.077 22.913,-25.358 27.808,-39.967c7.962,-23.764 6.153,-28.022 -11.899,-28.022c-16.147,0 -16.147,0 -16.159,4.75c-0.015,5.859 -1.932,13.263 -5.391,20.82c-3.006,6.564 -2.782,10.812 0.417,7.917c3.614,-3.27 9.986,-21.102 9.986,-27.945c0,-0.298 5.19,-0.542 11.534,-0.542c11.535,0 11.535,0 10.899,5.25c-2.141,17.685 -9.173,33.279 -20.297,45.012c-5.545,5.848 -31.844,-45.64 -29.552,-57.857c1.157,-6.169 -4.996,-9.923 -9.004,-5.493M77.54,107.523c-5.448,14.012 -10.067,25.477 -10.263,25.477c-0.948,0 -8.169,-4.138 -11.271,-6.459c-4.604,-3.445 -7.471,0.027 -2.952,3.574c15.225,11.951 16.13,11.462 25.946,-14.014c10.191,-26.448 7.72,-26.437 18.447,-0.082c4.921,12.089 9.17,21.981 9.442,21.981c0.765,0 13.32,-7.711 15.98,-9.815c2.062,-1.631 2.212,-2.165 1.157,-4.136c-1.211,-2.262 -1.211,-2.262 -4.368,0.68c-7.123,6.638 -10.474,7.647 -12.141,3.657c-12.392,-29.658 -18.943,-45.02 -19.449,-45.613c-0.342,-0.4 -5.08,10.738 -10.528,24.75"></path></g></g></svg>